<svg xmlns="http://www.w3.org/2000/svg" width="512" height="512" viewBox="0 0 24 24">
    <path
        d="M22.23 0H1.77C.79 0 0 .77 0 1.72v20.56C0 23.23.79 24 1.77 24h20.46c.98 0 1.77-.77 1.77-1.72V1.72C24 .77 23.21 0 22.23 0zM7.12 20.45H3.56V9h3.56v11.45zM5.34 7.58c-1.14 0-2.06-.92-2.06-2.06s.92-2.06 2.06-2.06 2.06.92 2.06 2.06-.92 2.06-2.06 2.06zM20.45 20.45h-3.56v-5.6c0-1.34-.03-3.06-1.86-3.06-1.86 0-2.15 1.45-2.15 2.95v5.71h-3.56V9h3.42v1.56h.05c.48-.91 1.66-1.86 3.42-1.86 3.66 0 4.34 2.41 4.34 5.54v6.21z" />
</svg>