<svg width="512" height="512" viewBox="0 0 512 512" xmlns="http://www.w3.org/2000/svg">
    <path
        d="M256 0C114.62 0 0 114.62 0 256c0 45.12 11.75 88.06 33.94 126.19L0 512l132.25-33.94C167.94 500.25 211.88 512 256 512c141.38 0 256-114.62 256-256S397.38 0 256 0zm0 472c-39.75 0-78.38-10.38-112.19-30.06l-7.88-4.69-78.75 20.19 21.19-77.25-5.12-8.12C52.38 342.38 42 299.75 42 256 42 132.88 132.88 42 256 42s214 90.88 214 214-90.88 214-214 214z" />
    <path
        d="M370.75 301.25c-5.5-2.75-32.5-16-37.5-17.88-5-1.88-8.62-2.75-12.25 2.75-3.62 5.5-14 17.88-17.12 21.5-3.12 3.62-6.25 4.12-11.75 1.38-5.5-2.75-23.12-8.5-44.12-27.12-16.38-14.62-27.38-32.62-30.62-38.12-3.12-5.5-.38-8.5 2.38-11.25 2.5-2.5 5.5-6.25 8.25-9.38 2.75-3.12 3.62-5.5 5.5-9.12 1.88-3.62.88-6.88-.5-9.62-1.38-2.75-12.25-29.62-16.88-40.88-4.5-11.25-9.12-9.62-12.25-9.75-3.12-.12-6.75-.12-10.38-.12-3.62 0-9.5 1.38-14.5 6.88-5 5.5-19 18.62-19 45.5s19.5 52.75 22.25 56.38c2.75 3.62 37.5 57.38 90.75 80.38 12.69 5.5 22.56 8.75 30.31 11.19 12.75 4.06 24.38 3.5 33.56 2.12 10.25-1.5 31.5-12.88 36-25.31 4.5-12.38 4.5-22.94 3.12-25.31-1.38-2.38-5-3.62-10.5-6.38z" />
</svg>